<?xml version="1.0" encoding="UTF-8"?>
<svg id="Layer_2" data-name="Layer 2" xmlns="http://www.w3.org/2000/svg" viewBox="0 0 81.86 64.46">
  <defs>
    <style>
      .cls-1 {
        fill: none;
        stroke: #c94895;
        stroke-linecap: round;
        stroke-linejoin: round;
        stroke-width: 1.78px;
      }

      .cls-2 {
        fill: #c94895;
      }
    </style>
  </defs>
  <g id="Layer_1-2" data-name="Layer 1">
    <g>
      <path class="cls-2" d="M31.99,54.65c4.43,2.59,9.49,3.98,14.76,3.98,6.51,0,12.68-2.14,17.77-6.03l1.89,1.89c.33.78.98,1.75,1.26,2.03l7.6,7.64c.2.2.45.29.72.29,1.01,0,2.43-1.17,3.55-2.3.73-.73,1.35-1.48,1.76-2.12.26-.4.94-1.46.25-2.16l-7.6-7.64c-.28-.28-1.25-.93-2.03-1.26l-1.89-1.89c8.79-11.49,7.96-28.02-2.54-38.52-11.44-11.43-30.04-11.43-41.47,0-5.54,5.54-8.59,12.9-8.59,20.73s2.88,14.77,8.13,20.25c0,0,3.15,3.18,6.43,5.09M64.12,50.9c-4.91,3.96-10.97,6.12-17.36,6.12-7.4,0-14.36-2.88-19.59-8.12-5.24-5.23-8.12-12.19-8.12-19.6s2.88-14.36,8.12-19.59c5.4-5.4,12.5-8.1,19.59-8.1s14.19,2.7,19.6,8.1c10.09,10.09,10.75,26.1,1.99,36.97-.1.13-.21.24-.31.36-.53.64-1.08,1.26-1.68,1.86-.55.55-1.13,1.06-1.72,1.56-.17.14-.33.29-.51.43M67.33,52.79c-.06.05-.12.1-.19.15l-1.34-1.34c.6-.51,1.16-1.03,1.69-1.56.52-.52,1.03-1.07,1.54-1.67l1.34,1.34c-.05.07-.11.13-.16.2-.44.53-.89,1.05-1.36,1.52-.47.47-.99.92-1.52,1.36M78.41,61.02c-1.05,1.05-1.86,1.59-2.24,1.77l-7.36-7.4c-.11-.12-.47-.63-.73-1.12.07-.06.13-.12.2-.18.6-.49,1.18-.99,1.71-1.52.52-.52,1.03-1.1,1.51-1.7.06-.07.13-.14.19-.21.49.26,1,.62,1.11.73l7.36,7.4c-.19.4-.76,1.23-1.77,2.24"/>
      <path class="cls-2" d="M46.76,5.52c-13.12,0-23.79,10.67-23.79,23.79s10.67,23.79,23.79,23.79c7.68,0,14.5-3.67,18.85-9.33.11-.08.19-.2.24-.32,2.94-3.96,4.7-8.84,4.7-14.14,0-13.12-10.67-23.79-23.79-23.79M42.76,51.11c-5.46-1-10.22-4-13.5-8.22,0-.02.03-.03.03-.05.38-1.31,1.1-2.19,2.59-3.13,1.56-.99,3.57-1.34,5.51-1.69.2-.04.39-.08.59-.11.61,2.61,3.21,5.73,3.54,6.12.16.19.38.28.61.28.16,0,.32-.05.46-.15l.94-.66c.16.2.34.41.55.62l-1.33,6.97ZM44.14,20.91c1.92,1.9,4.6,3.41,7.65,3.41.86,0,1.75-.13,2.65-.4v1.72c0,4.11-3.3,7.2-7.68,7.2s-7.68-3.1-7.68-7.2v-2.11c1.91.07,3.84-.91,5.07-2.62M39.07,21.92v-.55c0-4.1,3.3-7.2,7.68-7.2s7.68,3.1,7.68,7.2v.86c-4.01,1.42-7.68-.66-9.83-3.17-.18-.2-.43-.31-.71-.28-.27.03-.5.2-.62.44-.75,1.51-2.38,2.81-4.21,2.69M48.66,42.6c-.49.6-1.39,1.42-1.9,1.42s-1.42-.82-1.9-1.41l1.9-1.33,1.9,1.33ZM42.87,35.96c.58-.65.73-1.37.75-1.98.97.31,2.02.49,3.13.49s2.16-.18,3.14-.49c.03.61.17,1.33.75,1.98-.26.81-2.08,2.3-3.89,3.38-1.81-1.08-3.63-2.57-3.89-3.38M48.24,40.33c1.26-.81,3-2.09,3.73-3.41.59.29,1.27.49,1.99.67-.37,1.56-1.82,3.65-2.75,4.83l-.93-.65s-.06-.04-.09-.06l-1.97-1.38ZM45.28,40.33l-2.98,2.09c-.93-1.19-2.37-3.27-2.75-4.83.72-.17,1.4-.38,2-.67.73,1.32,2.47,2.61,3.73,3.41M46.76,51.49c-.81,0-1.61-.05-2.4-.14l1.16-6.09c.41.22.83.36,1.24.36s.84-.14,1.24-.35l1.16,6.08c-.79.09-1.59.14-2.4.14M50.76,51.11l-1.33-6.96c.21-.21.39-.43.55-.63l.93.65c.14.1.3.15.46.15.23,0,.46-.1.61-.28.33-.39,2.93-3.51,3.54-6.12.2.03.39.07.59.11,1.94.34,3.96.7,5.51,1.69,1.5.94,2.22,1.86,2.59,3.22-3.28,4.19-8.02,7.17-13.46,8.17M65.36,41.34c-.56-1.17-1.46-2.1-2.87-2.99-1.82-1.15-4.09-1.56-6.09-1.91-1.78-.32-3.47-.62-4.37-1.37,0,0,0,0-.01,0-.53-.45-.54-.93-.52-1.69v-.08c2.76-1.49,4.55-4.29,4.55-7.65v-4.27c0-5.02-4-8.81-9.3-8.81s-9.29,3.79-9.29,8.81v4.27c0,3.35,1.79,6.15,4.55,7.65v.08c.03.76.01,1.24-.51,1.69,0,0,0,0-.01.01-.9.75-2.58,1.05-4.37,1.37-2,.36-4.27.76-6.09,1.91-1.41.89-2.3,1.83-2.86,3-2.25-3.47-3.58-7.6-3.58-12.04,0-12.23,9.95-22.18,22.18-22.18s22.18,9.95,22.18,22.18c0,4.44-1.32,8.56-3.57,12.03"/>
      <polyline class="cls-1" points="5.03 11.5 8.35 15.64 14.16 6.52"/>
      <polyline class="cls-1" points="9.18 6.52 .89 6.52 .89 19.79 14.16 19.79 14.16 15.64"/>
      <polyline class="cls-1" points="5.03 30.57 8.35 34.72 14.16 25.59"/>
      <polyline class="cls-1" points="9.18 25.59 .89 25.59 .89 38.86 14.16 38.86 14.16 34.72"/>
      <polyline class="cls-1" points="5.03 49.64 8.35 53.79 14.16 44.67"/>
      <polyline class="cls-1" points="9.18 44.67 .89 44.67 .89 57.93 14.16 57.93 14.16 53.79"/>
    </g>
  </g>
</svg>