<?xml version="1.0" encoding="UTF-8"?>
<svg id="Layer_2" data-name="Layer 2" xmlns="http://www.w3.org/2000/svg" viewBox="0 0 60.4 71.27">
  <defs>
    <style>
      .cls-1 {
        stroke-width: 2.35px;
      }

      .cls-1, .cls-2, .cls-3 {
        fill: none;
        stroke: #26a8e0;
        stroke-linecap: round;
        stroke-linejoin: round;
      }

      .cls-2, .cls-3 {
        stroke-width: 2.27px;
      }

      .cls-3 {
        stroke-dasharray: .7 4.23;
      }
    </style>
  </defs>
  <g id="Layer_1-2" data-name="Layer 1">
    <g>
      <path class="cls-2" d="M1.13,63.04c0,3.92,3.18,7.1,7.1,7.1h4.26v-14.2"/>
      <path class="cls-2" d="M52.17,17.34H8.23c-3.92,0-7.1,3.18-7.1,7.1v38.6c0-3.92,3.18-7.1,7.1-7.1h43.94c3.92,0,7.1-3.18,7.1-7.1V10.24c0,3.92-3.18,7.1-7.1,7.1Z"/>
      <path class="cls-2" d="M59.27,10.25c0-3.92-3.18-7.1-7.1-7.1h-4.26v14.2"/>
      <path class="cls-2" d="M43.55,36.74h1.59c2.11,0,3.82,1.71,3.82,3.82s-1.71,3.82-3.82,3.82h-11.12c-2.11,0-3.82,1.71-3.82,3.82v2.76"/>
      <line class="cls-2" x1="30.2" y1="22.33" x2="30.2" y2="22.69"/>
      <path class="cls-3" d="M29.77,26.85c-.64,1.22-1.91,2.04-3.38,2.04h-10.15c-2.11,0-3.81,1.71-3.81,3.82v.21c0,2.11,1.71,3.82,3.81,3.82h10.89"/>
      <line class="cls-2" x1="29.25" y1="36.74" x2="29.61" y2="36.74"/>
      <path class="cls-2" d="M39.75,36.64c0-1.7-1.38-3.08-3.08-3.08s-3.08,1.38-3.08,3.08,1.38,3.08,3.08,3.08,3.08-1.38,3.08-3.08Z"/>
      <circle class="cls-1" cx="30.35" cy="5.47" r="4.29"/>
      <path class="cls-1" d="M35.2,10.92c.25.19.48.4.7.62,1.42,1.42,2.3,3.38,2.3,5.55v.25h-15.69v-.25c0-2.5,1.17-4.74,3-6.17"/>
    </g>
  </g>
</svg>