<?xml version="1.0" encoding="UTF-8"?>
<svg id="Layer_2" data-name="Layer 2" xmlns="http://www.w3.org/2000/svg" viewBox="0 0 75.5 60.5">
  <defs>
    <style>
      .cls-1 {
        fill: #8f78b0;
        fill-rule: evenodd;
      }
    </style>
  </defs>
  <g id="Layer_1-2" data-name="Layer 1">
    <path class="cls-1" d="M23.57,48.41c0,1.28,1.04,2.31,2.32,2.31s2.31-1.03,2.31-2.31-1.03-2.32-2.31-2.32-2.32,1.04-2.32,2.32M52.98,58.39V2.11h-2.77v56.28h2.77ZM55.09,12.27v4h11.29l2.05-1.86-2.08-2.14h-11.26ZM48.1,8.4v-4h-11.15l-2.09,2.14,2.05,1.86h11.19ZM48.1,24.14v-4h-11.15l-2.09,2.14,2.05,1.86h11.19ZM34.37,34.84h-16.98v3.4c0,.36.3.66.66.66h15.65c.37,0,.66-.3.66-.66v-3.4ZM30,46.8c4.76-.28,9.06-1.03,11.13-2.35.25-.16.5-.33.72-.52,0,0,0,0,0,0,.71-.59,1.25-1.3,1.25-2.25v-6.52c0-.18-.14-.32-.32-.32h-6.31v3.4c0,1.52-1.25,2.77-2.77,2.77h-15.65c-1.52,0-2.77-1.25-2.77-2.77v-3.4h-6.31c-.18,0-.32.14-.32.32v6.52c0,.96.53,1.67,1.25,2.25,0,0,0,0,0,0,.23.19.47.36.72.52,2.08,1.32,6.37,2.07,11.13,2.35.64-1.65,2.24-2.82,4.12-2.82s3.48,1.17,4.12,2.82M19.8,32.73h12.17v-1.81c0-1-.82-1.81-1.81-1.81h-8.54c-1,0-1.81.82-1.81,1.81v1.81ZM10.29,46.67v10.11c0,.89.73,1.62,1.62,1.62h27.94c.89,0,1.62-.73,1.62-1.62v-10.11c-2.43,1.17-6.6,1.94-11.19,2.23-.24,2.22-2.12,3.94-4.4,3.94s-4.15-1.72-4.4-3.93c-4.59-.29-8.76-1.05-11.2-2.23M74.45,60.5H1.05c-.58,0-1.05-.47-1.05-1.05s.47-1.05,1.05-1.05h7.5c-.24-.49-.38-1.04-.38-1.62v-11.55c-.99-.94-1.63-2.1-1.63-3.54v-6.52c0-1.34,1.09-2.42,2.43-2.42h8.71v-1.81c0-2.16,1.76-3.92,3.92-3.92h8.54c2.15,0,3.92,1.76,3.92,3.92v1.81h8.71c1.34,0,2.42,1.09,2.42,2.42v6.52c0,1.45-.64,2.61-1.63,3.54v11.55c0,.58-.14,1.13-.37,1.62h4.9V26.25h-11.6c-.26,0-.51-.1-.71-.27l-3.16-2.87c-.21-.19-.34-.46-.35-.75,0-.28.1-.56.3-.77l3.16-3.23c.2-.2.47-.32.75-.32h11.6v-7.52h-11.6c-.26,0-.51-.1-.71-.28l-3.16-2.87c-.21-.19-.34-.46-.35-.75,0-.29.1-.56.3-.77l3.16-3.23c.2-.2.47-.32.75-.32h11.6v-1.24c0-.58.47-1.05,1.05-1.05h4.88c.58,0,1.05.47,1.05,1.05v9.11h11.7c.28,0,.56.12.75.32l3.16,3.23c.2.21.31.48.3.77,0,.29-.13.56-.34.75l-3.16,2.87c-.19.18-.45.27-.71.27h-11.7v40.01h19.36c.58,0,1.05.47,1.05,1.05s-.47,1.05-1.05,1.05"/>
  </g>
</svg>