<?xml version="1.0" encoding="UTF-8"?>
<svg id="Layer_2" data-name="Layer 2" xmlns="http://www.w3.org/2000/svg" viewBox="0 0 68.78 68.54">
  <defs>
    <style>
      .cls-1 {
        fill: none;
        stroke: #d4622e;
        stroke-linecap: round;
        stroke-linejoin: round;
        stroke-width: 2.18px;
      }

      .cls-2 {
        fill: #d4622e;
      }
    </style>
  </defs>
  <g id="Layer_1-2" data-name="Layer 1">
    <g>
      <path class="cls-2" d="M61.67,13.33l3.19-2.8c.25-.22.35-.57.26-.88-.09-.32-.36-.56-.69-.61l-8.19-1.28C42.71-3.38,22.5-2.43,10.1,9.97-2.16,22.23-3.38,41.53,7.1,55.21l-3.19,2.8c-.25.22-.35.56-.26.88.09.32.36.56.69.61l8.19,1.28c6.31,5.19,14.07,7.76,21.81,7.76,8.87,0,17.72-3.36,24.34-9.98,12.25-12.25,13.48-31.56,3-45.24M13,59.12l-6.58-1.03,2.42-2.12c.35-.3.39-.83.1-1.18C-1.53,41.75-.51,23.01,11.31,11.19,22.34.16,39.89-1.34,52.63,7.19l-3.91-.61c-.25-.04-.51.03-.7.2-.19.17-.3.41-.29.67l.17,7.34c-9.37-6.49-22.08-5.44-30.25,2.74-8.41,8.41-9.26,21.85-1.99,31.27.14.19.36.31.6.33.24.02.47-.05.65-.21l2.11-1.85.11,4.95h0s.18,8.08.18,8.08l-6.3-.99h0ZM20.72,45.27c.05-.81-.92-1.25-1.49-.68h0s-2.75,2.41-2.75,2.41c-6.15-8.69-5.19-20.69,2.39-28.27,7.89-7.89,20.32-8.61,29.08-1.76l.14,6.33c0,.25.11.5.3.67.33.28.81.27,1.12,0l2.79-2.44c5.72,8.08,5.28,19.03-.92,26.62l-1.5,1.67c-7.89,7.87-20.3,8.58-29.06,1.74l-.14-5.95.02-.34ZM57.46,57.35c-11.03,11.03-28.57,12.53-41.32,4l3.91.61s.09.01.13.01c.05,0,.1-.02.15-.03.04,0,.08,0,.11-.02.11-.04.21-.09.3-.17.19-.17.3-.41.29-.66l-.17-7.34c9.36,6.49,22.07,5.44,30.25-2.74,8.41-8.41,9.27-21.85,1.99-31.27-.14-.19-.36-.31-.6-.33-.23-.01-.47.05-.65.21l-2.11,1.85-.29-13.04,12.88,2.02-2.42,2.12c-.35.3-.39.82-.1,1.18,10.48,13.02,9.46,31.76-2.36,43.59"/>
      <path class="cls-1" d="M33.3,42.12c0,2.48-2.01,4.49-4.49,4.49s-4.49-2.01-4.49-4.49,2.01-4.49,4.49-4.49,4.49,2.01,4.49,4.49Z"/>
      <rect class="cls-1" x="26.15" y="22.93" width="8.98" height="8.98"/>
      <polygon class="cls-1" points="48.64 35.61 44.24 38.39 39.84 41.16 39.84 35.61 39.84 30.06 44.24 32.83 48.64 35.61"/>
    </g>
  </g>
</svg>