<?xml version="1.0" encoding="UTF-8"?>
<svg id="Layer_2" data-name="Layer 2" xmlns="http://www.w3.org/2000/svg" viewBox="0 0 82.18 57.79">
  <defs>
    <style>
      .cls-1 {
        stroke-linecap: round;
        stroke-linejoin: round;
      }

      .cls-1, .cls-2 {
        fill: none;
        stroke: #02ac61;
        stroke-width: 1.91px;
      }

      .cls-2 {
        stroke-miterlimit: 10;
      }
    </style>
  </defs>
  <g id="Layer_1-2" data-name="Layer 1">
    <g>
      <rect class="cls-2" x="29.63" y="1.64" width="23.55" height="27.47" rx="11.37" ry="11.37"/>
      <path class="cls-1" d="M29.77,14.57s3.89-.34,5.27-1.37c1.38-1.03,2.75-3.21,2.75-3.21,0,0,3.68,3.72,6.53,4.35,4.12.92,8.7.46,8.7.46"/>
      <path class="cls-1" d="M36.07,28.54s.46,1.95-1.15,3.32c-1.6,1.38-9.28,2.06-11.68,3.32-2.4,1.26-8.59,3.66-10.65,16.49"/>
      <path class="cls-1" d="M34.12,32.32s3.89,4.01,8.25,6.87c4.35,2.86,5.38,3.32,5.38,3.32,0,0,2.29-2.63,3.44-4.93,1.15-2.29,1.6-4.12,1.6-4.12"/>
      <path class="cls-1" d="M37.21,41.37s2.06,2.98,3.89,2.86c1.18-.07,4.35-2.86,4.35-2.86"/>
      <path class="cls-1" d="M39.04,43.43c-.46.12-3.09,13.4-3.09,13.4"/>
      <path class="cls-1" d="M46.72,28.54s-.46,1.95,1.14,3.32c1.6,1.38,9.28,2.06,11.68,3.32,2.4,1.26,8.59,3.66,10.65,16.49"/>
      <path class="cls-1" d="M48.66,32.32s-3.89,4.01-8.25,6.87c-4.35,2.86-5.38,3.32-5.38,3.32,0,0-2.29-2.63-3.44-4.93-1.14-2.29-1.6-4.12-1.6-4.12"/>
      <path class="cls-1" d="M43.74,43.43c.46.12,3.09,13.4,3.09,13.4"/>
      <path class="cls-1" d="M23.68,22.73s-1.06-8.76-6.07-12.48c-5.01-3.72-7.32-3.18-7.32-3.18V.96L.96,10.65l9.05,9.69v-6.11s1.92-.8,6.16,2.92c4.24,3.72,5.68,12.34,5.68,12.34"/>
      <path class="cls-1" d="M58.5,22.73s1.06-8.76,6.07-12.48c5.01-3.72,7.32-3.18,7.32-3.18V.96l9.34,9.69-9.05,9.69v-6.11s-1.93-.8-6.16,2.92c-4.24,3.72-5.68,12.34-5.68,12.34"/>
    </g>
  </g>
</svg>